<?xml version="1.0" standalone="no"?>
<!DOCTYPE svg PUBLIC "-//W3C//DTD SVG 20010904//EN"
 "http://www.w3.org/TR/2001/REC-SVG-20010904/DTD/svg10.dtd">
<svg version="1.0" xmlns="http://www.w3.org/2000/svg"
 width="900.000000pt" height="258.000000pt" viewBox="0 0 900.000000 258.000000"
 preserveAspectRatio="xMidYMid meet">
<metadata>
Created by potrace 1.10, written by Peter Selinger 2001-2011
</metadata>
<g transform="translate(0.000000,258.000000) scale(0.100000,-0.100000)"
fill="#0000ff" stroke="none">
<path d="M3202 1990 c-35 -19 -72 -60 -72 -81 0 -7 7 -32 16 -56 15 -39 15
-45 0 -83 -11 -28 -16 -71 -16 -138 1 -170 23 -214 118 -227 54 -7 81 2 120
41 31 30 42 75 40 157 -1 37 3 72 9 78 5 5 37 9 69 7 l59 -3 8 -70 c13 -118
25 -158 57 -187 26 -24 39 -28 86 -28 30 0 68 7 84 15 26 14 33 13 69 -1 30
-12 58 -14 108 -10 85 8 111 8 196 0 66 -6 68 -5 101 28 39 39 49 85 40 198
-3 41 -5 84 -5 95 0 26 -63 91 -113 117 -36 18 -45 19 -97 8 -37 -8 -75 -10
-106 -4 -59 9 -134 6 -150 -8 -9 -7 -18 -7 -28 2 -10 8 -32 10 -67 6 -39 -5
-58 -3 -73 7 -17 13 -22 13 -41 0 -21 -13 -24 -13 -33 6 -6 11 -11 28 -11 38
0 10 -9 33 -20 51 -20 32 -23 34 -68 29 -26 -3 -59 -8 -74 -12 -20 -5 -35 -1
-61 19 -40 31 -94 33 -145 6z m136 -49 c26 -14 29 -47 5 -73 -12 -14 -31 -18
-78 -18 -52 0 -65 4 -84 23 -29 31 -19 54 33 76 42 18 80 16 124 -8z m198 -55
c-3 -28 -6 -70 -6 -93 0 -59 -37 -90 -78 -64 -18 11 -29 185 -14 204 7 8 28
11 58 9 l47 -4 -7 -52z m404 -116 l29 -31 43 28 c55 35 139 39 180 8 32 -24
36 -47 40 -205 l3 -115 -70 0 -70 0 3 101 c5 118 -4 144 -48 144 -44 0 -53
-26 -49 -144 l4 -101 -72 -3 c-54 -2 -73 0 -73 10 -1 7 -2 63 -3 123 l-2 110
-34 3 c-18 2 -38 -1 -44 -7 -7 -7 -10 -54 -8 -126 l2 -115 -74 0 c-51 0 -76 4
-78 13 -2 6 -3 83 -1 170 l3 157 69 0 c56 0 70 -3 70 -15 0 -8 9 -15 20 -15
11 0 20 5 20 10 0 14 38 29 78 29 25 1 41 -7 62 -29z m-603 -125 c1 -77 3
-151 5 -165 3 -25 2 -25 -72 -25 l-75 0 0 160 c-1 88 1 164 3 168 2 4 34 7 70
5 l67 -3 2 -140z"/>
<path d="M1518 1973 c-10 -2 -18 -11 -18 -19 0 -10 14 -14 54 -14 70 0 91 7
75 26 -11 13 -73 17 -111 7z"/>
<path d="M7329 1953 c-26 -4 -75 -46 -114 -97 -19 -26 -21 -26 -50 -10 -20 11
-53 16 -95 15 -36 0 -96 0 -135 1 -178 4 -305 -2 -368 -17 -51 -13 -62 -13
-87 0 -45 23 -192 20 -260 -6 -85 -32 -89 -33 -110 -14 -19 17 -94 38 -135 38
-60 -1 -125 -13 -155 -28 -37 -19 -119 -14 -156 10 -13 9 -50 12 -111 11 -78
-1 -96 -4 -122 -23 -34 -26 -53 -28 -84 -11 -65 36 -202 52 -247 28 -25 -14
-84 12 -137 61 -48 44 -87 50 -150 24 -45 -19 -84 -19 -109 0 -12 9 -43 14
-84 15 -59 0 -68 -3 -103 -33 -48 -41 -57 -86 -59 -267 -1 -151 6 -177 64
-225 29 -25 38 -27 87 -22 29 3 59 11 64 16 17 17 46 13 94 -10 45 -22 67 -22
198 -3 24 3 53 0 73 -9 23 -9 49 -11 87 -6 30 4 70 3 91 -1 39 -9 83 -5 151
12 32 8 47 8 57 -1 8 -7 60 -12 128 -13 104 -2 116 -1 146 21 l32 23 68 -22
c84 -28 227 -31 284 -6 53 23 105 21 118 -5 9 -16 14 -18 25 -9 9 7 20 8 32 2
24 -12 158 -7 222 8 41 10 58 10 82 0 35 -15 152 -8 174 10 12 10 22 9 49 -4
40 -19 122 -21 178 -4 31 9 44 9 59 0 31 -19 127 -15 175 9 l42 20 59 -29 c53
-26 62 -27 102 -17 61 16 111 71 111 123 0 22 -5 53 -11 70 -8 23 -7 45 5 91
16 65 14 161 -6 214 -6 16 -29 38 -53 52 -40 24 -59 27 -116 18z m107 -65 c2
-3 1 -66 -3 -142 l-6 -137 -56 3 -56 3 -6 110 c-3 61 -9 120 -13 132 -5 14 -2
24 8 30 14 8 124 9 132 1z m-2761 -6 c14 -10 65 -83 97 -140 17 -30 34 -48 49
-50 19 -3 21 0 15 20 -3 12 -9 58 -13 101 l-6 78 64 -3 c54 -3 64 -6 63 -20 0
-10 -1 -108 -2 -218 l-2 -200 -67 0 c-55 0 -71 4 -90 22 -13 12 -23 26 -23 31
0 5 -15 32 -34 60 -19 29 -40 64 -47 80 -13 28 -34 36 -41 15 -3 -7 -1 -53 3
-103 5 -49 5 -93 0 -98 -4 -4 -32 -7 -61 -5 l-53 3 1 215 c1 118 1 216 2 218
1 6 136 1 145 -6z m622 -112 c56 -43 64 -71 61 -198 l-3 -117 -52 -3 c-44 -3
-53 0 -67 19 -15 22 -16 22 -36 4 -21 -19 -103 -32 -143 -21 -29 7 -62 74 -52
105 3 11 20 34 36 51 28 27 37 30 94 30 86 0 97 5 82 37 -11 25 -13 25 -99 21
-97 -6 -101 -3 -91 56 5 32 8 35 47 39 22 3 76 3 119 1 60 -3 84 -8 104 -24z
m405 6 c12 -17 9 -50 -4 -69 -12 -15 -17 -16 -62 -2 -57 17 -86 12 -86 -16 0
-14 7 -19 28 -19 15 0 40 -7 56 -15 15 -8 33 -15 38 -15 22 0 47 -46 48 -87 0
-50 -35 -89 -89 -99 -38 -7 -184 0 -200 11 -15 8 -14 95 0 95 6 0 38 -7 70
-15 44 -12 64 -13 79 -5 26 14 26 40 0 40 -39 0 -116 33 -137 59 -14 16 -22
40 -23 63 0 30 6 41 33 61 17 14 41 27 52 30 33 9 189 -4 197 -17z m326 16
c12 -4 36 -20 52 -35 39 -37 39 -76 2 -118 -25 -28 -35 -32 -97 -36 -39 -3
-73 -10 -77 -16 -21 -33 56 -65 110 -46 17 6 43 9 59 7 26 -3 28 -6 25 -43 -2
-22 -6 -42 -9 -45 -2 -3 -55 -5 -116 -5 -120 0 -139 6 -182 63 -27 37 -28 171
0 202 57 64 155 94 233 72z m439 -34 c40 -39 43 -80 10 -121 -21 -24 -32 -28
-102 -35 -82 -7 -98 -18 -69 -47 14 -14 32 -16 103 -13 l86 3 -2 -39 c-2 -22
-5 -42 -9 -45 -3 -3 -52 -6 -108 -6 -156 0 -204 34 -214 150 -4 54 -1 69 18
100 24 38 80 80 121 88 13 3 49 3 79 1 45 -4 61 -11 87 -36z m414 11 l29 -31
42 27 c80 53 198 33 212 -35 3 -14 6 -81 8 -150 l3 -125 -70 0 -70 0 4 111 c3
105 2 112 -19 127 -26 18 -57 12 -71 -15 -6 -11 -9 -64 -7 -121 l3 -102 -72
-3 -73 -3 0 126 0 125 -40 0 c-52 0 -58 -16 -51 -138 4 -52 3 -98 0 -103 -3
-6 -37 -9 -75 -7 l-69 3 0 168 0 167 66 0 c50 0 68 -4 73 -15 7 -19 32 -19 43
-1 9 15 33 23 76 25 20 1 38 -8 58 -30z m562 -226 c46 -42 4 -97 -74 -97 -42
0 -54 4 -70 25 -27 34 -20 61 21 82 40 20 94 15 123 -10z"/>
<path d="M5157 1584 c-20 -11 -27 -22 -25 -37 7 -47 88 -20 88 28 0 29 -20 32
-63 9z"/>
<path d="M5923 1703 c-14 -9 -23 -26 -23 -41 0 -23 3 -24 36 -19 20 3 47 13
61 22 24 16 24 17 7 36 -21 23 -51 24 -81 2z"/>
<path d="M6313 1703 c-14 -9 -23 -26 -23 -41 0 -23 3 -24 36 -19 20 3 47 13
61 22 24 16 24 17 7 36 -21 23 -51 24 -81 2z"/>
<path d="M1646 1903 c-3 -21 -6 -62 -6 -90 0 -57 10 -65 43 -35 29 26 120 24
148 -4 22 -22 21 -17 42 -294 2 -25 1 -25 -73 -25 l-75 0 4 101 c2 56 0 110
-3 122 -8 24 -33 32 -65 21 -22 -9 -22 -13 -21 -116 1 -60 1 -114 1 -121 -1
-10 -20 -12 -77 -10 l-76 3 1 225 c1 220 -5 276 -28 240 -17 -25 -23 -130 -17
-295 l5 -160 31 -27 c38 -35 87 -39 163 -16 31 9 47 8 90 -5 54 -17 84 -14
172 17 35 12 43 12 69 -1 15 -8 52 -21 82 -29 47 -12 63 -12 131 2 43 9 85 20
93 24 29 14 40 0 40 -51 0 -42 5 -54 29 -78 26 -25 38 -29 117 -35 95 -7 179
9 204 39 14 17 41 20 56 5 11 -11 65 1 125 26 75 32 115 153 73 222 -17 30
-90 89 -137 112 -24 12 -33 25 -43 64 -7 27 -24 61 -38 75 -23 22 -35 26 -89
26 -35 0 -75 -6 -89 -14 -19 -10 -31 -10 -46 -2 -32 17 -157 14 -172 -4 -16
-19 -29 -19 -50 0 -26 24 -153 34 -213 17 -29 -8 -72 -20 -97 -27 -37 -11 -51
-10 -80 2 -19 7 -41 20 -50 27 -8 8 -32 17 -54 20 -46 7 -56 13 -56 30 0 12
-41 56 -52 56 -3 0 -8 -17 -12 -37z m533 -109 c46 -10 91 -58 91 -97 -1 -51
-36 -85 -103 -97 -31 -6 -65 -10 -74 -8 -12 2 -18 -3 -18 -17 0 -30 44 -41
117 -28 35 6 66 8 71 6 4 -2 7 -22 7 -43 0 -56 -20 -64 -145 -58 -108 5 -130
13 -170 67 -15 20 -20 43 -20 104 l0 79 40 34 c22 20 45 39 51 44 23 17 101
24 153 14z m274 -3 c5 -1 7 -50 5 -111 -3 -101 -1 -111 19 -131 21 -21 23 -21
47 -6 24 16 24 17 19 130 l-6 114 74 6 c41 3 77 2 80 -1 10 -11 -9 -322 -22
-370 -9 -31 -24 -53 -55 -78 -42 -35 -44 -36 -145 -38 -94 -2 -102 -1 -109 19
-4 12 -6 33 -3 48 5 26 7 26 86 29 80 3 82 3 104 37 28 42 17 62 -21 37 -34
-22 -115 -21 -142 2 -44 37 -54 74 -54 195 0 62 3 117 6 120 6 5 57 4 117 -2z
m406 -220 c60 -60 15 -211 -61 -211 -11 0 -29 -5 -40 -11 -18 -9 -24 -8 -35 7
-14 19 -8 54 11 66 6 4 23 8 39 8 43 0 34 28 -10 32 -35 3 -38 6 -41 37 -4 39
13 78 37 84 41 11 82 6 100 -12z"/>
<path d="M2086 1699 c-14 -11 -26 -30 -26 -41 0 -18 4 -20 36 -15 20 3 48 14
62 23 l26 17 -23 18 c-30 24 -42 24 -75 -2z"/>
<path d="M8900 908 c-30 -5 -80 -12 -110 -14 -92 -8 -131 -12 -235 -28 -157
-24 -213 -34 -315 -56 -52 -11 -110 -23 -127 -27 -18 -3 -33 -9 -33 -13 0 -4
-10 -8 -22 -8 -34 -1 -108 -17 -263 -57 -77 -21 -167 -44 -200 -52 -33 -8 -71
-20 -85 -25 -52 -22 -66 -27 -90 -31 -68 -13 -168 -40 -190 -52 -14 -7 -55
-17 -90 -21 -36 -4 -82 -15 -102 -25 -47 -24 -161 -51 -182 -43 -8 3 -30 -1
-47 -10 -18 -9 -48 -16 -67 -16 -20 0 -49 -4 -66 -9 -84 -26 -118 -31 -202
-35 -50 -2 -96 -6 -101 -9 -16 -10 -435 -9 -488 1 -27 6 -81 10 -118 11 -38 1
-102 10 -143 21 -40 11 -86 20 -102 20 -16 0 -32 3 -36 8 -4 4 -49 14 -99 24
-51 9 -117 23 -147 31 -30 8 -89 23 -130 32 -41 10 -109 28 -150 40 -41 13
-93 27 -115 32 -27 5 -39 13 -38 23 2 12 -12 15 -68 17 -48 1 -77 7 -88 17
-10 9 -27 16 -39 16 -13 0 -57 9 -100 21 -159 42 -179 47 -252 54 -41 4 -84
13 -96 20 -12 8 -72 21 -135 30 -63 9 -145 23 -184 31 -232 52 -1078 66 -1309
23 -26 -5 -51 -7 -55 -4 -4 2 -43 -3 -87 -11 -43 -8 -138 -23 -211 -34 -72
-11 -143 -24 -157 -30 -37 -14 -141 -37 -206 -45 -30 -4 -86 -18 -125 -31 -38
-13 -80 -24 -92 -24 -12 0 -28 -7 -37 -15 -8 -8 -21 -15 -28 -15 -19 0 -265
-78 -316 -101 -23 -10 -59 -23 -80 -28 -45 -11 -123 -38 -177 -62 -22 -9 -58
-24 -80 -32 -22 -9 -101 -39 -175 -67 -74 -29 -144 -56 -155 -60 -11 -4 -41
-17 -66 -29 -25 -11 -58 -21 -73 -21 -14 0 -26 -4 -26 -9 0 -7 -55 -36 -70
-36 -3 0 -37 -15 -75 -34 -39 -18 -88 -42 -110 -51 -116 -53 -135 -63 -135
-71 0 -11 64 -12 88 -1 9 5 32 16 50 25 19 9 41 17 51 17 9 0 25 6 36 14 11 7
32 16 48 20 15 3 27 11 27 16 0 6 10 10 23 10 13 0 32 7 43 15 10 8 28 15 39
15 11 0 29 7 39 15 11 8 30 15 42 15 12 0 27 7 34 15 7 8 22 15 34 15 12 0 31
7 42 15 10 8 27 15 37 15 11 0 31 6 45 13 15 8 42 21 60 30 19 9 41 17 51 17
9 0 26 7 37 15 10 8 28 15 40 15 11 0 29 7 40 15 10 8 28 15 40 15 11 0 29 7
40 15 10 8 28 15 40 15 11 0 29 7 40 15 10 8 28 15 40 15 11 0 29 7 40 15 10
8 31 15 45 15 14 0 34 7 45 15 10 8 28 15 39 15 11 0 33 7 49 15 15 8 38 15
50 15 11 1 32 7 46 15 14 8 36 14 50 15 14 0 34 6 45 14 11 7 36 16 55 18 19
3 49 10 65 16 17 6 55 17 85 26 30 8 78 22 107 30 28 9 66 16 83 16 17 0 47 7
67 15 19 8 52 15 72 15 20 1 54 7 76 15 22 8 57 15 77 15 21 0 57 6 80 14 24
8 84 16 133 20 50 3 104 10 120 15 31 10 354 25 535 26 185 0 483 -16 557 -31
40 -8 96 -14 125 -14 29 0 75 -7 102 -15 27 -8 67 -15 88 -15 22 0 48 -5 59
-10 10 -6 47 -15 82 -20 34 -5 82 -14 107 -20 85 -22 135 -33 165 -37 17 -3
44 -11 62 -19 17 -8 42 -14 56 -14 13 0 41 -7 60 -15 20 -8 49 -15 64 -15 15
0 37 -7 47 -15 11 -8 34 -15 50 -15 17 -1 42 -7 56 -15 14 -8 39 -15 55 -15
17 0 41 -7 55 -15 14 -8 39 -15 55 -15 17 0 41 -7 55 -15 14 -8 37 -14 51 -15
15 0 40 -7 55 -15 16 -8 41 -15 55 -15 15 0 43 -7 62 -15 20 -8 47 -15 61 -15
13 0 37 -7 52 -15 16 -8 43 -15 60 -15 17 0 51 -7 74 -15 23 -8 58 -15 77 -15
19 0 44 -5 55 -11 12 -6 60 -15 107 -20 47 -4 109 -13 136 -19 66 -14 614 -14
680 0 28 6 86 15 130 19 44 4 90 13 102 19 12 7 40 12 63 12 22 0 57 7 77 15
19 8 47 15 62 15 14 0 46 6 71 14 53 17 120 34 175 46 22 4 54 12 70 18 17 6
57 18 90 27 33 9 81 23 106 31 26 7 55 14 65 14 11 0 32 7 48 15 15 8 38 15
49 15 12 0 39 6 62 14 47 16 114 34 170 46 22 4 54 12 70 18 45 15 123 34 181
42 28 4 61 13 72 19 11 6 36 11 55 11 19 0 54 7 77 15 23 8 59 15 79 15 20 0
58 7 85 15 27 8 72 15 100 15 28 0 78 7 111 15 33 8 88 14 122 15 34 0 96 7
138 17 l75 16 0 44 c0 49 1 48 -100 31z"/>
</g>
</svg>
